<mxfile host="65bd71144e">
    <diagram id="VsYe-7IR1wfM4W-o6MmE" name="Page-1">
        <mxGraphModel dx="588" dy="371" grid="1" gridSize="10" guides="1" tooltips="1" connect="1" arrows="1" fold="1" page="1" pageScale="1" pageWidth="850" pageHeight="1100" math="0" shadow="0">
            <root>
                <mxCell id="0"/>
                <mxCell id="1" parent="0"/>
                <mxCell id="32" value="" style="group" parent="1" vertex="1" connectable="0">
                    <mxGeometry x="180" y="310" width="590" height="650" as="geometry"/>
                </mxCell>
                <mxCell id="9" style="edgeStyle=orthogonalEdgeStyle;rounded=0;orthogonalLoop=1;jettySize=auto;html=1;" parent="32" source="2" edge="1">
                    <mxGeometry relative="1" as="geometry">
                        <mxPoint x="160" y="110" as="targetPoint"/>
                    </mxGeometry>
                </mxCell>
                <mxCell id="2" value="Has Specialization" style="rhombus;whiteSpace=wrap;html=1;" parent="32" vertex="1">
                    <mxGeometry x="240" y="70" width="120" height="80" as="geometry"/>
                </mxCell>
                <mxCell id="4" value="" style="endArrow=classic;html=1;" parent="32" edge="1">
                    <mxGeometry width="50" height="50" relative="1" as="geometry">
                        <mxPoint x="300.5" as="sourcePoint"/>
                        <mxPoint x="300" y="70" as="targetPoint"/>
                        <Array as="points"/>
                    </mxGeometry>
                </mxCell>
                <mxCell id="6" value="Yes" style="text;html=1;strokeColor=none;fillColor=none;align=center;verticalAlign=middle;whiteSpace=wrap;rounded=0;" parent="32" vertex="1">
                    <mxGeometry x="320" y="70" width="40" height="20" as="geometry"/>
                </mxCell>
                <mxCell id="31" style="edgeStyle=orthogonalEdgeStyle;rounded=0;orthogonalLoop=1;jettySize=auto;html=1;" parent="32" source="7" edge="1">
                    <mxGeometry relative="1" as="geometry">
                        <mxPoint x="210" y="370" as="targetPoint"/>
                        <Array as="points">
                            <mxPoint x="505" y="300"/>
                            <mxPoint x="210" y="300"/>
                        </Array>
                    </mxGeometry>
                </mxCell>
                <mxCell id="7" value="" style="rounded=0;whiteSpace=wrap;html=1;" parent="32" vertex="1">
                    <mxGeometry x="420" y="70" width="170" height="80" as="geometry"/>
                </mxCell>
                <mxCell id="5" style="edgeStyle=orthogonalEdgeStyle;rounded=0;orthogonalLoop=1;jettySize=auto;html=1;entryX=0;entryY=0.5;entryDx=0;entryDy=0;" parent="32" source="2" target="7" edge="1">
                    <mxGeometry relative="1" as="geometry">
                        <mxPoint x="380" y="110" as="targetPoint"/>
                    </mxGeometry>
                </mxCell>
                <mxCell id="8" value="Display&amp;nbsp; Specilization for student in a Label and display related courses" style="text;html=1;strokeColor=none;fillColor=none;align=center;verticalAlign=middle;whiteSpace=wrap;rounded=0;" parent="32" vertex="1">
                    <mxGeometry x="430" y="100" width="150" height="20" as="geometry"/>
                </mxCell>
                <mxCell id="10" value="" style="rounded=0;whiteSpace=wrap;html=1;" parent="32" vertex="1">
                    <mxGeometry x="20" y="70" width="140" height="80" as="geometry"/>
                </mxCell>
                <mxCell id="24" style="edgeStyle=orthogonalEdgeStyle;rounded=0;orthogonalLoop=1;jettySize=auto;html=1;entryX=0.5;entryY=0;entryDx=0;entryDy=0;exitX=0.5;exitY=1;exitDx=0;exitDy=0;" parent="32" source="10" target="23" edge="1">
                    <mxGeometry relative="1" as="geometry">
                        <mxPoint x="90" y="160" as="sourcePoint"/>
                    </mxGeometry>
                </mxCell>
                <mxCell id="11" value="Hide dropdown and Display General (Core/Elective) courses" style="text;html=1;strokeColor=none;fillColor=none;align=center;verticalAlign=middle;whiteSpace=wrap;rounded=0;" parent="32" vertex="1">
                    <mxGeometry x="30" y="80" width="120" height="60" as="geometry"/>
                </mxCell>
                <mxCell id="12" value="No" style="text;html=1;strokeColor=none;fillColor=none;align=center;verticalAlign=middle;whiteSpace=wrap;rounded=0;" parent="32" vertex="1">
                    <mxGeometry x="170" y="70" width="40" height="20" as="geometry"/>
                </mxCell>
                <mxCell id="15" value="Deny Registration" style="rounded=0;whiteSpace=wrap;html=1;" parent="32" vertex="1">
                    <mxGeometry x="370" y="460" width="120" height="60" as="geometry"/>
                </mxCell>
                <mxCell id="17" style="edgeStyle=orthogonalEdgeStyle;rounded=0;orthogonalLoop=1;jettySize=auto;html=1;exitX=1;exitY=0.5;exitDx=0;exitDy=0;" parent="32" source="16" edge="1">
                    <mxGeometry relative="1" as="geometry">
                        <mxPoint x="370" y="490" as="targetPoint"/>
                    </mxGeometry>
                </mxCell>
                <mxCell id="33" style="edgeStyle=orthogonalEdgeStyle;rounded=0;orthogonalLoop=1;jettySize=auto;html=1;exitX=0.5;exitY=1;exitDx=0;exitDy=0;" parent="32" source="16" edge="1">
                    <mxGeometry relative="1" as="geometry">
                        <mxPoint x="211" y="588" as="targetPoint"/>
                    </mxGeometry>
                </mxCell>
                <mxCell id="16" value="Has Min and Max Credit been exceeded" style="rhombus;whiteSpace=wrap;html=1;" parent="32" vertex="1">
                    <mxGeometry x="130" y="440" width="160" height="100" as="geometry"/>
                </mxCell>
                <mxCell id="18" value="Yes" style="text;html=1;strokeColor=none;fillColor=none;align=center;verticalAlign=middle;whiteSpace=wrap;rounded=0;" parent="32" vertex="1">
                    <mxGeometry x="300" y="460" width="40" height="20" as="geometry"/>
                </mxCell>
                <mxCell id="21" value="Allow Registration" style="rounded=0;whiteSpace=wrap;html=1;" parent="32" vertex="1">
                    <mxGeometry x="160" y="590" width="120" height="60" as="geometry"/>
                </mxCell>
                <mxCell id="28" style="edgeStyle=orthogonalEdgeStyle;rounded=0;orthogonalLoop=1;jettySize=auto;html=1;entryX=0.5;entryY=0;entryDx=0;entryDy=0;" parent="32" source="23" target="16" edge="1">
                    <mxGeometry relative="1" as="geometry">
                        <Array as="points">
                            <mxPoint x="210" y="250"/>
                        </Array>
                    </mxGeometry>
                </mxCell>
                <mxCell id="23" value="Has Specialization been Mounted for level" style="rhombus;whiteSpace=wrap;html=1;" parent="32" vertex="1">
                    <mxGeometry y="200" width="180" height="100" as="geometry"/>
                </mxCell>
                <mxCell id="30" style="edgeStyle=orthogonalEdgeStyle;rounded=0;orthogonalLoop=1;jettySize=auto;html=1;" parent="32" source="25" edge="1">
                    <mxGeometry relative="1" as="geometry">
                        <mxPoint x="210" y="370" as="targetPoint"/>
                    </mxGeometry>
                </mxCell>
                <mxCell id="25" value="Display specialization in drown" style="rounded=0;whiteSpace=wrap;html=1;" parent="32" vertex="1">
                    <mxGeometry x="30" y="340" width="120" height="60" as="geometry"/>
                </mxCell>
                <mxCell id="26" style="edgeStyle=orthogonalEdgeStyle;rounded=0;orthogonalLoop=1;jettySize=auto;html=1;exitX=0.5;exitY=1;exitDx=0;exitDy=0;entryX=0.5;entryY=0;entryDx=0;entryDy=0;" parent="32" source="23" target="25" edge="1">
                    <mxGeometry relative="1" as="geometry"/>
                </mxCell>
                <mxCell id="27" value="Yes" style="text;html=1;align=center;verticalAlign=middle;resizable=0;points=[];autosize=1;strokeColor=none;" parent="32" vertex="1">
                    <mxGeometry x="30" y="310" width="40" height="20" as="geometry"/>
                </mxCell>
                <mxCell id="29" value="No" style="text;html=1;align=center;verticalAlign=middle;resizable=0;points=[];autosize=1;strokeColor=none;" parent="32" vertex="1">
                    <mxGeometry x="185" y="220" width="30" height="20" as="geometry"/>
                </mxCell>
            </root>
        </mxGraphModel>
    </diagram>
    <diagram id="sE0cSBUZv--PoNGZTt5F" name="Page-2">
        <mxGraphModel dx="697" dy="371" grid="1" gridSize="10" guides="1" tooltips="1" connect="1" arrows="1" fold="1" page="1" pageScale="1" pageWidth="850" pageHeight="1100" math="0" shadow="0">
            <root>
                <mxCell id="X80QgcdJMDdg5PBQMslN-0"/>
                <mxCell id="X80QgcdJMDdg5PBQMslN-1" parent="X80QgcdJMDdg5PBQMslN-0"/>
                <mxCell id="X80QgcdJMDdg5PBQMslN-4" style="edgeStyle=orthogonalEdgeStyle;rounded=0;orthogonalLoop=1;jettySize=auto;html=1;" edge="1" parent="X80QgcdJMDdg5PBQMslN-1" source="X80QgcdJMDdg5PBQMslN-2" target="X80QgcdJMDdg5PBQMslN-3">
                    <mxGeometry relative="1" as="geometry"/>
                </mxCell>
                <mxCell id="X80QgcdJMDdg5PBQMslN-11" style="edgeStyle=orthogonalEdgeStyle;rounded=0;orthogonalLoop=1;jettySize=auto;html=1;exitX=1;exitY=0.5;exitDx=0;exitDy=0;entryX=0;entryY=0;entryDx=0;entryDy=0;" edge="1" parent="X80QgcdJMDdg5PBQMslN-1" source="X80QgcdJMDdg5PBQMslN-2" target="X80QgcdJMDdg5PBQMslN-6">
                    <mxGeometry relative="1" as="geometry"/>
                </mxCell>
                <mxCell id="X80QgcdJMDdg5PBQMslN-17" style="edgeStyle=orthogonalEdgeStyle;rounded=0;orthogonalLoop=1;jettySize=auto;html=1;" edge="1" parent="X80QgcdJMDdg5PBQMslN-1" source="X80QgcdJMDdg5PBQMslN-2" target="X80QgcdJMDdg5PBQMslN-9">
                    <mxGeometry relative="1" as="geometry"/>
                </mxCell>
                <mxCell id="X80QgcdJMDdg5PBQMslN-2" value="Student Portal" style="rounded=0;whiteSpace=wrap;html=1;" vertex="1" parent="X80QgcdJMDdg5PBQMslN-1">
                    <mxGeometry x="70" y="40" width="120" height="60" as="geometry"/>
                </mxCell>
                <mxCell id="X80QgcdJMDdg5PBQMslN-3" value="DB" style="shape=cylinder3;whiteSpace=wrap;html=1;boundedLbl=1;backgroundOutline=1;size=15;rotation=0;" vertex="1" parent="X80QgcdJMDdg5PBQMslN-1">
                    <mxGeometry x="100" y="150" width="60" height="80" as="geometry"/>
                </mxCell>
                <mxCell id="X80QgcdJMDdg5PBQMslN-5" style="edgeStyle=orthogonalEdgeStyle;rounded=0;orthogonalLoop=1;jettySize=auto;html=1;" edge="1" source="X80QgcdJMDdg5PBQMslN-6" target="X80QgcdJMDdg5PBQMslN-7" parent="X80QgcdJMDdg5PBQMslN-1">
                    <mxGeometry relative="1" as="geometry"/>
                </mxCell>
                <mxCell id="X80QgcdJMDdg5PBQMslN-13" style="edgeStyle=orthogonalEdgeStyle;rounded=0;orthogonalLoop=1;jettySize=auto;html=1;entryX=0.083;entryY=1.05;entryDx=0;entryDy=0;entryPerimeter=0;" edge="1" parent="X80QgcdJMDdg5PBQMslN-1" source="X80QgcdJMDdg5PBQMslN-6" target="X80QgcdJMDdg5PBQMslN-9">
                    <mxGeometry relative="1" as="geometry"/>
                </mxCell>
                <mxCell id="X80QgcdJMDdg5PBQMslN-14" style="edgeStyle=orthogonalEdgeStyle;rounded=0;orthogonalLoop=1;jettySize=auto;html=1;" edge="1" parent="X80QgcdJMDdg5PBQMslN-1" source="X80QgcdJMDdg5PBQMslN-6">
                    <mxGeometry relative="1" as="geometry">
                        <mxPoint x="183" y="102" as="targetPoint"/>
                    </mxGeometry>
                </mxCell>
                <mxCell id="X80QgcdJMDdg5PBQMslN-6" value="HR System" style="rounded=0;whiteSpace=wrap;html=1;" vertex="1" parent="X80QgcdJMDdg5PBQMslN-1">
                    <mxGeometry x="305" y="200" width="120" height="60" as="geometry"/>
                </mxCell>
                <mxCell id="X80QgcdJMDdg5PBQMslN-7" value="DB" style="shape=cylinder3;whiteSpace=wrap;html=1;boundedLbl=1;backgroundOutline=1;size=15;rotation=0;" vertex="1" parent="X80QgcdJMDdg5PBQMslN-1">
                    <mxGeometry x="335" y="310" width="60" height="80" as="geometry"/>
                </mxCell>
                <mxCell id="X80QgcdJMDdg5PBQMslN-8" style="edgeStyle=orthogonalEdgeStyle;rounded=0;orthogonalLoop=1;jettySize=auto;html=1;" edge="1" source="X80QgcdJMDdg5PBQMslN-9" target="X80QgcdJMDdg5PBQMslN-10" parent="X80QgcdJMDdg5PBQMslN-1">
                    <mxGeometry relative="1" as="geometry"/>
                </mxCell>
                <mxCell id="X80QgcdJMDdg5PBQMslN-12" style="edgeStyle=orthogonalEdgeStyle;rounded=0;orthogonalLoop=1;jettySize=auto;html=1;entryX=1;entryY=0;entryDx=0;entryDy=0;" edge="1" parent="X80QgcdJMDdg5PBQMslN-1" source="X80QgcdJMDdg5PBQMslN-9" target="X80QgcdJMDdg5PBQMslN-6">
                    <mxGeometry relative="1" as="geometry"/>
                </mxCell>
                <mxCell id="X80QgcdJMDdg5PBQMslN-16" style="edgeStyle=orthogonalEdgeStyle;rounded=0;orthogonalLoop=1;jettySize=auto;html=1;" edge="1" parent="X80QgcdJMDdg5PBQMslN-1" source="X80QgcdJMDdg5PBQMslN-9" target="X80QgcdJMDdg5PBQMslN-2">
                    <mxGeometry relative="1" as="geometry"/>
                </mxCell>
                <mxCell id="X80QgcdJMDdg5PBQMslN-9" value="Finance System" style="rounded=0;whiteSpace=wrap;html=1;" vertex="1" parent="X80QgcdJMDdg5PBQMslN-1">
                    <mxGeometry x="510" y="40" width="120" height="60" as="geometry"/>
                </mxCell>
                <mxCell id="X80QgcdJMDdg5PBQMslN-10" value="DB" style="shape=cylinder3;whiteSpace=wrap;html=1;boundedLbl=1;backgroundOutline=1;size=15;rotation=0;" vertex="1" parent="X80QgcdJMDdg5PBQMslN-1">
                    <mxGeometry x="540" y="150" width="60" height="80" as="geometry"/>
                </mxCell>
            </root>
        </mxGraphModel>
    </diagram>
</mxfile>